<?xml version="1.0" encoding="UTF-8" standalone="no"?><!DOCTYPE svg PUBLIC "-//W3C//DTD SVG 1.1//EN" "http://www.w3.org/Graphics/SVG/1.1/DTD/svg11.dtd"><svg id="bureauunique" width="140px" height="98px" version="1.1" xmlns="http://www.w3.org/2000/svg" xmlns:xlink="http://www.w3.org/1999/xlink" xml:space="preserve" xmlns:serif="http://www.serif.com/" style="fill-rule:evenodd;clip-rule:evenodd;stroke-linejoin:round;stroke-miterlimit:1.41421;"><rect x="54.147" y="63.672" width="31.052" height="26.684" style="fill:#73501b;"/><path d="M54.151,97.208l30.825,0.004c1.893,-0.004 3.428,-1.537 3.428,-3.432l0,-29.678l0,-1.149l-3.428,0l0,27.403l-30.829,0l0.004,-27.403l-3.423,0l0,30.827c0,1.895 1.528,3.428 3.423,3.428Z" style="fill:#ae7a29;fill-rule:nonzero;"/><path d="M84.009,89.236l0,-24.344l0,-1.067c0,-1.753 -1.44,-3.172 -3.214,-3.172l-22.469,0c-1.77,0 -3.207,1.419 -3.207,3.172l0,25.411l28.89,0Z" style="fill:#ae7a29;fill-rule:nonzero;"/><rect x="55.798" y="87.843" width="27.556" height="8.109" style="fill:#b78840;"/><path d="M55.798,93.185l27.557,0.004l0,-5.346l-27.557,0l0,5.342Z" style="fill:#8c6221;fill-rule:nonzero;"/><path d="M48.147,22.634c0,-1.148 0.933,-2.073 2.091,-2.073c-1.158,0 -2.091,-0.928 -2.091,-2.067l0,-4.649c0,-1.139 0.933,-2.069 2.091,-2.069l38.873,0c1.154,0 2.092,0.93 2.092,2.069l0,4.649c0,1.139 -0.938,2.067 -2.092,2.067c1.154,0 2.092,0.925 2.092,2.073l0,24.109c0,1.139 -0.938,2.064 -2.092,2.064l-38.873,0c-1.158,0 -2.091,-0.925 -2.091,-2.064l0,-24.109Zm-48.147,32.569l139.35,0l0,-55.203l-139.35,0l0,55.203Z" style="fill:#292929;fill-rule:nonzero;"/><path d="M51.699,22.843l35.952,0l0,14.925l-35.952,0l0,-14.925Zm23.811,23.896l-11.674,0l0,-6.843l11.674,0l0,6.843Zm-25.272,2.068l38.873,0c1.154,0 2.092,-0.925 2.092,-2.064l0,-24.109c0,-1.148 -0.938,-2.073 -2.092,-2.073l-38.873,0c-1.158,0 -2.091,0.925 -2.091,2.073l0,24.109c0,1.139 0.933,2.064 2.091,2.064Z" style="fill:#999;fill-rule:nonzero;"/><path d="M91.203,18.494l0,-4.649c0,-1.139 -0.938,-2.069 -2.092,-2.069l-38.873,0c-1.158,0 -2.091,0.93 -2.091,2.069l0,4.649c0,1.139 0.933,2.067 2.091,2.067l38.873,0c1.154,0 2.092,-0.928 2.092,-2.067Z" style="fill:#545454;fill-rule:nonzero;"/><rect x="51.699" y="22.843" width="35.951" height="14.925" style="fill:#6e6e6e;"/><rect x="63.836" y="39.896" width="11.675" height="6.843" style="fill:#828282;"/></svg>