<?xml version="1.0" encoding="UTF-8" standalone="no"?><!DOCTYPE svg PUBLIC "-//W3C//DTD SVG 1.1//EN" "http://www.w3.org/Graphics/SVG/1.1/DTD/svg11.dtd"><svg id="comptoiravecchaise" width="355px" height="145px" version="1.1" xmlns="http://www.w3.org/2000/svg" xmlns:xlink="http://www.w3.org/1999/xlink" xml:space="preserve" xmlns:serif="http://www.serif.com/" style="fill-rule:evenodd;clip-rule:evenodd;stroke-linejoin:round;stroke-miterlimit:1.41421;"><title id="title">Comptoire</title><rect x="0" y="0" width="354.769" height="68.931" style="fill:#424242;"/><path d="M246.65,32.084c0,-3.856 3.127,-6.988 6.988,-6.988c3.856,0 6.988,3.132 6.988,6.988c0,3.861 -3.132,6.984 -6.988,6.984c-3.861,0 -6.988,-3.123 -6.988,-6.984Z" style="fill:#e8dabb;fill-rule:nonzero;"/><path d="M270.564,30.406c0,-10.663 8.64,-19.307 19.312,-19.307c10.663,0 19.303,8.644 19.303,19.307c0,10.663 -8.64,19.312 -19.303,19.312c-10.672,0 -19.312,-8.649 -19.312,-19.312Z" style="fill:#f5eee0;fill-rule:nonzero;"/><path d="M277.513,30.406c0,-6.824 5.535,-12.354 12.363,-12.354c6.82,0 12.35,5.53 12.35,12.354c0,6.824 -5.53,12.359 -12.35,12.359c-6.828,0 -12.363,-5.535 -12.363,-12.359Z" style="fill:#e8dabb;fill-rule:nonzero;"/><path d="M247.892,32.084c0,-3.174 2.575,-5.745 5.746,-5.745c3.17,0 5.745,2.571 5.745,5.745c0,3.171 -2.575,5.742 -5.745,5.742c-3.171,0 -5.746,-2.571 -5.746,-5.742Z" style="fill:#f5eee0;fill-rule:nonzero;"/><rect x="242.884" y="31.381" width="3.956" height="1.406" style="fill:#f5eee0;"/><rect x="324.656" y="30.406" width="1.152" height="24.613" style="fill:#888;"/><path d="M328.172,29.984c0,-2.701 -1.32,-4.888 -2.942,-4.888c-1.618,0 -2.938,2.187 -2.938,4.888c0,2.691 1.32,4.883 2.938,4.883c1.622,0 2.942,-2.192 2.942,-4.883Z" style="fill:#888;fill-rule:nonzero;"/><path d="M35.6,91.206c0,-3.386 2.743,-6.13 6.129,-6.13l42.606,0c3.39,0 6.133,2.744 6.133,6.13l0,47.216c0,3.382 -2.743,6.126 -6.133,6.126l-42.606,0c-3.386,0 -6.129,-2.744 -6.129,-6.126l0,-47.216Z" style="fill:#59462f;fill-rule:nonzero;"/><path d="M35.6,86.612c0,-3.386 2.743,-6.13 6.129,-6.13l42.606,0c3.39,0 6.133,2.744 6.133,6.13l0,42.618c0,3.382 -2.743,6.13 -6.133,6.13l-42.606,0c-3.386,0 -6.129,-2.748 -6.129,-6.13l0,-42.618Z" style="fill:#735a3d;fill-rule:nonzero;"/><path d="M149.944,91.206c0,-3.386 2.743,-6.13 6.134,-6.13l42.613,0c3.387,0 6.134,2.744 6.134,6.13l0,47.216c0,3.382 -2.747,6.126 -6.134,6.126l-42.613,0c-3.391,0 -6.134,-2.744 -6.134,-6.126l0,-47.216Z" style="fill:#59462f;fill-rule:nonzero;"/><path d="M149.944,86.612c0,-3.386 2.743,-6.13 6.134,-6.13l42.613,0c3.387,0 6.134,2.744 6.134,6.13l0,42.618c0,3.382 -2.747,6.13 -6.134,6.13l-42.613,0c-3.391,0 -6.134,-2.748 -6.134,-6.13l0,-42.618Z" style="fill:#735a3d;fill-rule:nonzero;"/><path d="M264.296,91.206c0,-3.386 2.748,-6.13 6.13,-6.13l42.618,0c3.382,0 6.13,2.744 6.13,6.13l0,47.216c0,3.382 -2.748,6.126 -6.13,6.126l-42.618,0c-3.382,0 -6.13,-2.744 -6.13,-6.126l0,-47.216Z" style="fill:#59462f;fill-rule:nonzero;"/><path d="M264.296,86.612c0,-3.386 2.748,-6.13 6.13,-6.13l42.618,0c3.382,0 6.13,2.744 6.13,6.13l0,42.618c0,3.382 -2.748,6.13 -6.13,6.13l-42.618,0c-3.382,0 -6.13,-2.748 -6.13,-6.13l0,-42.618Z" style="fill:#735a3d;fill-rule:nonzero;"/></svg>