
<svg version="1.0" xmlns="http://www.w3.org/2000/svg">

<g transform="translate(0.000000,260.000000) scale(0.100000,-0.100000)"
fill="#000000" stroke="none" id="table">
<path d="M1200 2250 c-35 -8 -70 -41 -70 -65 0 -28 24 -33 103 -22 57 8 97 8
154 0 82 -12 103 -6 103 26 0 10 -11 28 -24 40 -22 20 -37 24 -128 27 -57 2
-119 -1 -138 -6z"/>
<path d="M1180 2063 l0 -78 135 0 135 0 0 78 0 77 -135 0 -135 0 0 -77z"/>
<path d="M820 1793 l-55 -58 58 55 c53 50 62 60 54 60 -1 0 -27 -26 -57 -57z"/>
<path d="M1770 1795 c30 -30 57 -55 59 -55 3 0 -19 25 -49 55 -30 30 -57 55
-59 55 -3 0 19 -25 49 -55z"/>
<path d="M753 1718 c-15 -20 -25 -38 -20 -38 3 0 12 11 21 25 17 26 16 35 -1
13z"/>
<path d="M1830 1726 c0 -2 8 -10 18 -17 15 -13 16 -12 3 4 -13 16 -21 21 -21
13z"/>
<path d="M1870 1670 c6 -11 13 -20 16 -20 2 0 0 9 -6 20 -6 11 -13 20 -16 20
-2 0 0 -9 6 -20z"/>
<path d="M412 1480 c-28 -12 -38 -38 -47 -120 -8 -78 8 -186 31 -211 18 -20
59 -25 69 -9 3 5 1 46 -5 91 -8 59 -8 100 0 155 9 58 9 78 0 90 -14 16 -16 16
-48 4z"/>
<path d="M2135 1480 c-3 -5 -1 -45 5 -88 9 -57 9 -99 1 -157 -9 -64 -9 -81 2
-92 19 -19 65 -1 76 31 30 77 20 258 -16 298 -17 19 -58 24 -68 8z"/>
<path d="M487 1444 c-4 -4 -7 -67 -7 -140 l0 -133 83 -3 84 -3 -9 40 c-5 22
-8 85 -6 140 l3 100 -70 3 c-39 1 -74 0 -78 -4z"/>
<path d="M1965 1315 l0 -135 78 0 77 0 0 135 0 135 -77 0 -78 0 0 -135z"/>
<path d="M1897 1018 c-2 -7 0 -21 5 -30 5 -12 5 -18 -2 -18 -5 0 -10 6 -10 12
0 7 -11 -4 -25 -24 -29 -43 -30 -51 -10 -68 8 -7 13 -16 10 -19 -2 -4 17 -5
42 -1 77 12 107 73 61 124 -28 30 -64 42 -71 24z m33 -78 c8 -5 11 -10 5 -10
-5 0 -17 5 -25 10 -8 5 -10 10 -5 10 6 0 17 -5 25 -10z m-50 -27 c0 -21 -3
-24 -9 -14 -5 8 -7 20 -4 28 8 21 13 15 13 -14z"/>
<path d="M655 998 c-51 -29 -60 -84 -20 -123 33 -34 76 -33 114 4 l29 28 -22
19 c-11 10 -25 17 -29 16 -5 -1 -6 2 -3 7 10 15 -16 61 -33 61 -9 0 -25 -6
-36 -12z m40 -28 c3 -5 2 -10 -4 -10 -5 0 -13 5 -16 10 -3 6 -2 10 4 10 5 0
13 -4 16 -10z m-8 -28 c9 -6 7 -12 -7 -25 -11 -9 -20 -13 -20 -7 0 5 5 12 11
16 8 4 7 9 -2 15 -8 5 -9 9 -4 9 6 0 16 -4 22 -8z m48 -22 c3 -5 2 -10 -4 -10
-5 0 -13 5 -16 10 -3 6 -2 10 4 10 5 0 13 -4 16 -10z"/>
<path d="M825 840 c27 -27 51 -50 54 -50 3 0 -17 23 -44 50 -27 28 -51 50 -54
50 -3 0 17 -22 44 -50z"/>
<path d="M1765 838 l-50 -53 53 50 c48 46 57 55 49 55 -1 0 -25 -24 -52 -52z"/>
<path d="M900 777 c0 -3 12 -12 26 -22 15 -9 23 -12 20 -6 -7 11 -46 35 -46
28z"/>
<path d="M1180 578 l0 -78 135 0 135 0 0 78 0 77 -135 0 -135 0 0 -77z"/>
<path d="M1144 476 c-11 -28 5 -66 34 -78 35 -15 239 -15 275 0 34 15 54 59
34 79 -11 11 -27 12 -87 2 -67 -10 -146 -7 -222 8 -20 4 -29 1 -34 -11z"/>

</g>

<g transform="translate(0.000000,700.000000) scale(0.100000,-0.100000)"
fill="#000000" stroke="none" id="ghost">
<path d="M2913 5815 c-69 -21 -126 -60 -195 -133 -127 -135 -240 -331 -348
-605 -35 -87 -64 -156 -66 -154 -3 2 -24 44 -48 93 -55 112 -257 384 -359 482
-102 98 -165 127 -272 126 -128 -1 -215 -45 -354 -178 -91 -88 -150 -169 -201
-279 -82 -175 -93 -316 -32 -439 77 -158 209 -220 332 -158 65 33 160 111 221
181 91 106 117 101 218 -40 103 -146 145 -223 205 -379 122 -313 205 -648 248
-1002 7 -58 13 -199 13 -315 0 -194 -3 -219 -28 -325 -34 -146 -73 -225 -138
-284 -71 -64 -143 -90 -249 -90 -153 0 -271 68 -331 189 -55 111 -50 197 13
250 58 49 144 20 179 -61 16 -35 20 -62 17 -115 -2 -38 1 -69 5 -69 34 0 112
70 143 130 27 52 26 170 -4 233 -28 63 -142 176 -210 211 -160 81 -325 43
-477 -109 -160 -160 -235 -388 -222 -674 19 -441 289 -822 701 -992 286 -118
685 -168 961 -121 529 91 916 423 1138 977 114 284 169 554 202 990 37 482
104 763 247 1037 47 90 137 208 159 208 5 0 66 -40 137 -90 70 -49 158 -105
196 -125 123 -64 212 -42 253 62 14 38 18 75 18 178 -1 155 -15 215 -85 361
-84 179 -162 273 -272 331 -47 25 -63 28 -148 28 -88 0 -100 -2 -170 -36 -91
-43 -187 -119 -343 -269 -65 -62 -119 -111 -121 -109 -2 2 -18 65 -36 139 -88
358 -204 587 -388 761 -100 94 -175 143 -271 176 -75 26 -172 29 -238 8z m27
-613 c36 -37 52 -91 39 -137 -11 -40 -20 -44 -34 -13 -6 12 -17 26 -27 32 -39
24 -66 -48 -31 -86 15 -17 15 -18 -6 -18 -83 0 -138 109 -96 190 34 65 106 80
155 32z m345 12 c24 -16 55 -80 55 -115 0 -40 -32 -91 -67 -106 -39 -16 -60
-9 -38 13 18 18 20 55 3 72 -22 22 -49 14 -61 -18 -15 -40 -24 -38 -38 9 -33
111 58 203 146 145z m-107 -472 c49 -35 76 -104 77 -192 0 -42 -6 -90 -14
-110 -39 -96 -115 -147 -202 -137 -65 8 -97 32 -125 92 -47 100 -24 256 47
322 61 56 158 67 217 25z"/>
</g>

<g id="bird">
        <g id="body" fill="#B8E4C2">
            <path d="M48.42,78.11c0-17.45,14.14-31.58,31.59-31.58s31.59,14.14,31.59,31.58c0,17.44-14.14,31.59-31.59,31.59
            S48.42,95.56,48.42,78.11"/>
            <path d="M109.19,69.88c0,0-8.5-27.33-42.51-18.53c-34.02,8.81-20.65,91.11,45.25,84.73
            c40.39-3.65,48.59-24.6,48.59-24.6S124.68,106.02,109.19,69.88"/>
            <path id="wing" fill="#81CCAA" d="M105.78,75.09c4.56,0,8.84,1.13,12.62,3.11c0,0,0.01-0.01,0.01-0.01l36.23,12.38c0,0-13.78,30.81-41.96,38.09
            c-1.51,0.39-2.82,0.59-3.99,0.62c-0.96,0.1-1.92,0.16-2.9,0.16c-15.01,0-27.17-12.17-27.17-27.17
            C78.61,87.26,90.78,75.09,105.78,75.09"/>
        </g>
        <g id="head">
            <path id="beak" fill="#F69C0D" d="M50.43,68.52c0,0-8.81,2.58-10.93,4.86l9.12,9.87C48.61,83.24,48.76,74.28,50.43,68.52"/>
            <path id="eye-ball" fill="#F6FDC4" d="M60.53,71.68c0-6.33,5.13-11.46,11.46-11.46c6.33,0,11.46,5.13,11.46,11.46c0,6.33-5.13,11.46-11.46,11.46
                C65.66,83.14,60.53,78.01,60.53,71.68"/>
            <path id="pupil" fill="#1F2600" d="M64.45,71.68c0-4.16,3.38-7.53,7.54-7.53c4.16,0,7.53,3.37,7.53,7.53c0,4.16-3.37,7.53-7.53,7.53
                C67.82,79.22,64.45,75.84,64.45,71.68"/>
            <path class="eye-ball" fill="#F6FDC4" d="M72.39,74.39c0-2.73,2.22-4.95,4.95-4.95c2.73,0,4.95,2.21,4.95,4.95c0,2.74-2.22,4.95-4.95,4.95
                C74.6,79.34,72.39,77.13,72.39,74.39"/>
        </g>
    </g>

<g id="cercle">
     <path d="
        M 100, 100
        m -75, 0
        a 75,75 0 1,0 150,0
        a 75,75 0 1,0 -150,0
    "/>
</g>

<g id="desk">
<rect x="53" y="19" style="fill:#ED8A19;" width="3" height="9"/>
<rect x="50" y="19" style="fill:#EBBA16;" width="3" height="9"/>
<path style="fill:#546A79;" d="M46,19H12V1.342C12,0.601,12.601,0,13.342,0h31.316C45.399,0,46,0.601,46,1.342V19z"/>
<rect x="27" y="23" style="fill:#AFB6BB;" width="4" height="5"/>
<path style="fill:#E7ECED;" d="M44.658,25H13.342C12.601,25,12,24.399,12,23.658V19h34v4.658C46,24.399,45.399,25,44.658,25z"/>
<polygon style="fill:#553323;" points="58,28 56,28 51.487,28 6.513,28 2,28 0,28 0,32 2,32 2,58 4.513,58 6.246,32 51.754,32 
    53.487,58 56,58 56,32 58,32 "/>
</g>

    <g id="triangle">
        <path d="M150 0 L75 200 L225 200 Z" />
    </g>

</svg>
