<?xml version="1.0" encoding="UTF-8" standalone="no"?><!DOCTYPE svg PUBLIC "-//W3C//DTD SVG 1.1//EN" "http://www.w3.org/Graphics/SVG/1.1/DTD/svg11.dtd"><svg width="100%" height="100%" viewBox="0 0 138 95" version="1.1" xmlns="http://www.w3.org/2000/svg" xmlns:xlink="http://www.w3.org/1999/xlink" xml:space="preserve" xmlns:serif="http://www.serif.com/" style="fill-rule:evenodd;clip-rule:evenodd;stroke-linejoin:round;stroke-miterlimit:1.41421;"><path d="M68.992,21.277c-26.667,0 -48.284,11.528 -48.284,25.752c0,14.221 21.617,25.752 48.284,25.752c26.667,0 48.286,-11.531 48.286,-25.752c0,-14.224 -21.619,-25.752 -48.286,-25.752Z" style="fill:#424242;fill-rule:nonzero;"/><rect x="61.502" y="3.236" width="14.662" height="12.603" style="fill:#73501b;"/><path d="M76.164,0l-14.559,0c-0.894,0 -1.617,0.725 -1.617,1.619l0,14.56l1.617,0l0,-0.542l0,-12.401l14.559,0l0,12.943l1.617,0l0,-14.559c0,-0.895 -0.723,-1.62 -1.617,-1.62Z" style="fill:#ae7a29;fill-rule:nonzero;"/><path d="M62.064,3.765l0,12.001c0,0.829 0.678,1.499 1.516,1.499l10.613,0c0.834,0 1.514,-0.67 1.514,-1.499l0,-12.001l-13.643,0Z" style="fill:#ae7a29;fill-rule:nonzero;"/><path d="M75.387,0.593l-13.016,-0.001l0,3.832l13.016,0l0,-3.831Z" style="fill:#b78840;fill-rule:nonzero;"/><path d="M75.387,1.9l-13.016,-0.001l0,2.525l13.016,0l0,-2.524Z" style="fill:#8c6221;fill-rule:nonzero;"/><path d="M110.114,26.525l-13.054,-6.675l5.738,-11.221l13.054,6.676l-5.738,11.22Z" style="fill:#73501b;fill-rule:nonzero;"/><path d="M117.326,12.423l-12.963,-6.628c-0.796,-0.407 -1.769,-0.091 -2.177,0.705l-6.382,12.481l-0.247,0.482l1.441,0.737l0.246,-0.483l5.646,-11.041l12.962,6.629l-5.892,11.523l1.439,0.736l6.629,-12.962c0.407,-0.796 0.094,-1.772 -0.702,-2.179Z" style="fill:#ae7a29;fill-rule:nonzero;"/><path d="M103.057,9.357l-5.234,10.236l-0.229,0.448c-0.377,0.738 -0.08,1.644 0.667,2.025l9.45,4.832c0.742,0.38 1.653,0.092 2.03,-0.645l5.463,-10.685l-12.147,-6.211Z" style="fill:#ae7a29;fill-rule:nonzero;"/><path d="M116.364,12.597l-11.588,-5.927l-1.745,3.412l11.589,5.926l1.744,-3.411Z" style="fill:#b78840;fill-rule:nonzero;"/><path d="M115.768,13.761l-11.588,-5.926l-1.149,2.247l11.589,5.926l1.148,-2.247Z" style="fill:#8c6221;fill-rule:nonzero;"/><path d="M27.837,26.525l13.053,-6.675l-5.737,-11.221l-13.055,6.676l5.739,11.22Z" style="fill:#73501b;fill-rule:nonzero;"/><path d="M20.625,12.423l12.963,-6.628c0.796,-0.407 1.769,-0.091 2.176,0.705l6.382,12.481l0.247,0.482l-1.44,0.737l-0.246,-0.483l-5.647,-11.041l-12.962,6.629l5.893,11.523l-1.439,0.736l-6.629,-12.962c-0.408,-0.796 -0.094,-1.772 0.702,-2.179Z" style="fill:#ae7a29;fill-rule:nonzero;"/><path d="M34.893,9.357l5.235,10.236l0.229,0.448c0.377,0.738 0.079,1.644 -0.667,2.025l-9.45,4.832c-0.742,0.38 -1.653,0.092 -2.03,-0.645l-5.463,-10.685l12.146,-6.211Z" style="fill:#ae7a29;fill-rule:nonzero;"/><path d="M21.587,12.597l11.588,-5.927l1.745,3.412l-11.589,5.926l-1.744,-3.411Z" style="fill:#b78840;fill-rule:nonzero;"/><path d="M22.182,13.761l11.588,-5.926l1.15,2.247l-11.589,5.926l-1.149,-2.247Z" style="fill:#8c6221;fill-rule:nonzero;"/><rect x="61.502" y="78.245" width="14.662" height="12.603" style="fill:#73501b;"/><path d="M76.164,94.084l-14.559,0c-0.894,0 -1.617,-0.727 -1.617,-1.619l0,-14.018l0,-0.542l1.617,0l0,12.943l14.559,0l0,-12.943l1.617,0l0,14.558c0,0.894 -0.723,1.621 -1.617,1.621Z" style="fill:#ae7a29;fill-rule:nonzero;"/><path d="M62.064,90.318l0,-11.497l0,-0.504c0,-0.828 0.678,-1.499 1.516,-1.499l10.613,0c0.834,0 1.514,0.671 1.514,1.499l0,12.001l-13.643,0Z" style="fill:#ae7a29;fill-rule:nonzero;"/><path d="M75.387,93.49l-13.016,0.002l0,-3.832l13.016,0l0,3.83Z" style="fill:#b78840;fill-rule:nonzero;"/><rect x="62.371" y="89.66" width="13.016" height="2.523" style="fill:#8c6221;"/><path d="M110.114,67.558l-13.054,6.676l5.738,11.22l13.054,-6.675l-5.738,-11.221Z" style="fill:#73501b;fill-rule:nonzero;"/><path d="M117.326,81.661l-12.963,6.628c-0.796,0.407 -1.769,0.09 -2.177,-0.706l-6.382,-12.48l-0.247,-0.483l1.441,-0.736l0.246,0.483l5.646,11.041l12.962,-6.629l-5.892,-11.523l1.439,-0.737l6.629,12.963c0.407,0.796 0.094,1.771 -0.702,2.179Z" style="fill:#ae7a29;fill-rule:nonzero;"/><path d="M103.057,84.727l-5.234,-10.236l-0.229,-0.449c-0.377,-0.737 -0.08,-1.643 0.667,-2.025l9.45,-4.832c0.742,-0.379 1.653,-0.091 2.03,0.646l5.463,10.685l-12.147,6.211Z" style="fill:#ae7a29;fill-rule:nonzero;"/><path d="M116.364,81.487l-11.588,5.926l-1.745,-3.412l11.589,-5.925l1.744,3.411Z" style="fill:#b78840;fill-rule:nonzero;"/><path d="M115.768,80.323l-11.588,5.926l-1.149,-2.248l11.589,-5.925l1.148,2.247Z" style="fill:#8c6221;fill-rule:nonzero;"/><path d="M27.837,67.558l13.053,6.676l-5.737,11.22l-13.055,-6.675l5.739,-11.221Z" style="fill:#73501b;fill-rule:nonzero;"/><path d="M20.625,81.661l12.963,6.628c0.796,0.407 1.769,0.09 2.176,-0.706l6.382,-12.48l0.247,-0.483l-1.44,-0.736l-0.246,0.483l-5.647,11.041l-12.962,-6.629l5.893,-11.523l-1.439,-0.737l-6.629,12.963c-0.408,0.796 -0.094,1.771 0.702,2.179Z" style="fill:#ae7a29;fill-rule:nonzero;"/><path d="M34.893,84.727l5.235,-10.236l0.229,-0.449c0.377,-0.737 0.079,-1.643 -0.667,-2.025l-9.45,-4.832c-0.742,-0.379 -1.653,-0.091 -2.03,0.646l-5.463,10.685l12.146,6.211Z" style="fill:#ae7a29;fill-rule:nonzero;"/><path d="M21.587,81.487l11.588,5.926l1.745,-3.412l-11.589,-5.925l-1.744,3.411Z" style="fill:#b78840;fill-rule:nonzero;"/><path d="M22.182,80.323l11.588,5.926l1.15,-2.248l-11.589,-5.925l-1.149,2.247Z" style="fill:#8c6221;fill-rule:nonzero;"/><rect x="3.236" y="39.797" width="12.604" height="14.663" style="fill:#73501b;"/><path d="M0,39.797l0,14.56c0,0.893 0.726,1.618 1.619,1.619l14.56,0l0,-1.619l-0.541,0l-12.402,0l0,-14.56l12.943,0l0,-1.617l-14.56,0c-0.893,0 -1.619,0.724 -1.619,1.617Z" style="fill:#ae7a29;fill-rule:nonzero;"/><path d="M3.765,53.9l12.002,0c0.829,0 1.5,-0.68 1.5,-1.518l0,-10.611c0,-0.837 -0.671,-1.516 -1.5,-1.516l-12.002,0l0,13.645Z" style="fill:#ae7a29;fill-rule:nonzero;"/><rect x="0.594" y="40.577" width="3.832" height="13.013" style="fill:#b78840;"/><rect x="1.9" y="40.577" width="2.526" height="13.013" style="fill:#8c6221;"/><rect x="122.146" y="39.697" width="12.604" height="14.663" style="fill:#73501b;"/><path d="M137.986,54.36l0,-14.559c0,-0.894 -0.726,-1.619 -1.619,-1.619l-14.02,0l-0.541,0l0,1.619l12.944,0l0,14.559l-12.944,0l0,1.617l14.561,0c0.893,0 1.619,-0.723 1.619,-1.617Z" style="fill:#ae7a29;fill-rule:nonzero;"/><path d="M134.221,40.258l-11.499,0l-0.503,0c-0.829,0 -1.5,0.679 -1.5,1.517l0,10.612c0,0.837 0.671,1.515 1.5,1.515l12.002,0l0,-13.644Z" style="fill:#ae7a29;fill-rule:nonzero;"/><rect x="133.56" y="40.567" width="3.832" height="13.014" style="fill:#b78840;"/><rect x="133.56" y="40.567" width="2.526" height="13.014" style="fill:#8c6221;"/></svg>