<?xml version="1.0" encoding="UTF-8" standalone="no"?><!DOCTYPE svg PUBLIC "-//W3C//DTD SVG 1.1//EN" "http://www.w3.org/Graphics/SVG/1.1/DTD/svg11.dtd"><svg width="100%" height="100%" viewBox="0 0 127 67" version="1.1" xmlns="http://www.w3.org/2000/svg" xmlns:xlink="http://www.w3.org/1999/xlink" xml:space="preserve" xmlns:serif="http://www.serif.com/" style="fill-rule:evenodd;clip-rule:evenodd;stroke-linejoin:round;stroke-miterlimit:1.41421;"><rect x="0.628" y="5.469" width="125.172" height="28.747" style="fill:#69190b;"/><path d="M34.238,65.208c0,0.742 -0.602,1.343 -1.342,1.343l-24.904,0c-0.739,0 -1.342,-0.601 -1.342,-1.343l0,-57.585c0,-0.74 0.603,-1.341 1.342,-1.341l24.904,0c0.74,0 1.342,0.601 1.342,1.341l0,57.585Z" style="fill:#af4030;fill-rule:nonzero;"/><path d="M12.558,15.957c-0.462,0 -0.838,0.374 -0.838,0.837c0,0.464 0.376,0.838 0.838,0.838c0.464,0 0.838,-0.374 0.838,-0.838c0,-0.463 -0.374,-0.837 -0.838,-0.837Z" style="fill:#91220f;fill-rule:nonzero;"/><path d="M20.445,15.957c-0.463,0 -0.839,0.374 -0.839,0.837c0,0.464 0.376,0.838 0.839,0.838c0.462,0 0.837,-0.374 0.837,-0.838c0,-0.463 -0.375,-0.837 -0.837,-0.837Z" style="fill:#91220f;fill-rule:nonzero;"/><path d="M28.329,17.632c0.462,0 0.838,-0.374 0.838,-0.838c0,-0.463 -0.376,-0.837 -0.838,-0.837c-0.462,0 -0.838,0.374 -0.838,0.837c0,0.464 0.376,0.838 0.838,0.838Z" style="fill:#91220f;fill-rule:nonzero;"/><path d="M13.339,36.428l-0.154,-0.254c-0.153,-0.174 -0.377,-0.287 -0.627,-0.287c-0.251,0 -0.472,0.113 -0.625,0.287l-0.155,0.254l-0.058,0.298c0,0.112 0.023,0.22 0.064,0.317c0.124,0.305 0.424,0.522 0.774,0.522c0.351,0 0.651,-0.217 0.777,-0.522c0.039,-0.097 0.061,-0.205 0.061,-0.317l-0.057,-0.298Z" style="fill:#91220f;fill-rule:nonzero;"/><path d="M21.225,36.428l-0.154,-0.254c-0.154,-0.174 -0.376,-0.287 -0.626,-0.287c-0.25,0 -0.474,0.113 -0.628,0.287l-0.155,0.254l-0.056,0.298c0,0.112 0.023,0.22 0.063,0.317c0.124,0.305 0.424,0.522 0.776,0.522c0.35,0 0.649,-0.217 0.774,-0.522c0.04,-0.097 0.063,-0.205 0.063,-0.317l-0.057,-0.298Z" style="fill:#91220f;fill-rule:nonzero;"/><path d="M29.11,36.428l-0.154,-0.254c-0.154,-0.174 -0.376,-0.287 -0.627,-0.287c-0.25,0 -0.473,0.113 -0.627,0.287l-0.153,0.254l-0.058,0.298c0,0.112 0.023,0.22 0.063,0.317c0.126,0.305 0.426,0.522 0.775,0.522c0.352,0 0.651,-0.217 0.775,-0.522c0.039,-0.097 0.063,-0.205 0.063,-0.317l-0.057,-0.298Z" style="fill:#91220f;fill-rule:nonzero;"/><path d="M13.339,46.394l-0.154,-0.254c-0.153,-0.174 -0.377,-0.287 -0.627,-0.287c-0.251,0 -0.472,0.113 -0.625,0.287l-0.155,0.254l-0.058,0.297l0,0.001c0,0.11 0.023,0.218 0.064,0.315c0.124,0.307 0.424,0.523 0.774,0.523c0.351,0 0.651,-0.216 0.777,-0.523c0.039,-0.097 0.061,-0.205 0.061,-0.315l0,-0.001l-0.057,-0.297Z" style="fill:#91220f;fill-rule:nonzero;"/><path d="M21.225,46.394l-0.154,-0.254c-0.154,-0.174 -0.376,-0.287 -0.626,-0.287c-0.25,0 -0.474,0.113 -0.628,0.287l-0.155,0.254l-0.056,0.297l0,0.001c0,0.11 0.023,0.218 0.063,0.315c0.124,0.307 0.424,0.523 0.776,0.523c0.35,0 0.649,-0.216 0.774,-0.523c0.04,-0.097 0.063,-0.205 0.063,-0.315l0,-0.001l-0.057,-0.297Z" style="fill:#91220f;fill-rule:nonzero;"/><path d="M29.11,46.394l-0.154,-0.254c-0.154,-0.174 -0.376,-0.287 -0.627,-0.287c-0.25,0 -0.473,0.113 -0.627,0.287l-0.153,0.254l-0.058,0.297l0,0.001c0,0.11 0.023,0.218 0.063,0.315c0.126,0.307 0.426,0.523 0.775,0.523c0.352,0 0.651,-0.216 0.775,-0.523c0.039,-0.097 0.063,-0.205 0.063,-0.315l0,-0.001l-0.057,-0.297Z" style="fill:#91220f;fill-rule:nonzero;"/><path d="M12.558,55.819c-0.462,0 -0.838,0.376 -0.838,0.838c0,0.463 0.376,0.84 0.838,0.84c0.464,0 0.838,-0.377 0.838,-0.84c0,-0.462 -0.374,-0.838 -0.838,-0.838Z" style="fill:#91220f;fill-rule:nonzero;"/><path d="M20.445,55.819c-0.463,0 -0.839,0.376 -0.839,0.838c0,0.463 0.376,0.84 0.839,0.84c0.462,0 0.837,-0.377 0.837,-0.84c0,-0.462 -0.375,-0.838 -0.837,-0.838Z" style="fill:#91220f;fill-rule:nonzero;"/><path d="M28.329,55.819c-0.462,0 -0.838,0.376 -0.838,0.838c0,0.463 0.376,0.84 0.838,0.84c0.462,0 0.838,-0.377 0.838,-0.84c0,-0.462 -0.376,-0.838 -0.838,-0.838Z" style="fill:#91220f;fill-rule:nonzero;"/><path d="M91.347,31.957c0,0.742 -0.6,1.343 -1.342,1.343l-24.902,0c-0.742,0 -1.343,-0.601 -1.343,-1.343l0,-24.334c0,-0.74 0.601,-1.341 1.343,-1.341l24.902,0c0.742,0 1.342,0.601 1.342,1.341l0,24.334Z" style="fill:#af4030;fill-rule:nonzero;"/><path d="M70.507,16.794c0,0.464 -0.376,0.838 -0.838,0.838c-0.463,0 -0.84,-0.374 -0.84,-0.838c0,-0.463 0.377,-0.837 0.84,-0.837c0.462,0 0.838,0.374 0.838,0.837Z" style="fill:#91220f;fill-rule:nonzero;"/><path d="M78.391,16.794c0,0.464 -0.375,0.838 -0.836,0.838c-0.465,0 -0.838,-0.374 -0.838,-0.838c0,-0.463 0.373,-0.837 0.838,-0.837c0.461,0 0.836,0.374 0.836,0.837Z" style="fill:#91220f;fill-rule:nonzero;"/><path d="M86.277,16.794c0,0.464 -0.375,0.838 -0.838,0.838c-0.462,0 -0.838,-0.374 -0.838,-0.838c0,-0.463 0.376,-0.837 0.838,-0.837c0.463,0 0.838,0.374 0.838,0.837Z" style="fill:#91220f;fill-rule:nonzero;"/><path d="M70.507,26.76c0,0.464 -0.376,0.839 -0.838,0.839c-0.463,0 -0.84,-0.375 -0.84,-0.839c0,-0.463 0.377,-0.839 0.84,-0.839c0.462,0 0.838,0.376 0.838,0.839Z" style="fill:#91220f;fill-rule:nonzero;"/><path d="M78.391,26.76c0,0.464 -0.375,0.839 -0.836,0.839c-0.465,0 -0.838,-0.375 -0.838,-0.839c0,-0.463 0.373,-0.839 0.838,-0.839c0.461,0 0.836,0.376 0.836,0.839Z" style="fill:#91220f;fill-rule:nonzero;"/><path d="M86.277,26.76c0,0.464 -0.375,0.839 -0.838,0.839c-0.462,0 -0.838,-0.375 -0.838,-0.839c0,-0.463 0.376,-0.839 0.838,-0.839c0.463,0 0.838,0.376 0.838,0.839Z" style="fill:#91220f;fill-rule:nonzero;"/><path d="M119.837,31.957c0,0.742 -0.602,1.343 -1.343,1.343l-24.903,0c-0.742,0 -1.343,-0.601 -1.343,-1.343l0,-24.334c0,-0.74 0.601,-1.341 1.343,-1.341l24.903,0c0.741,0 1.343,0.601 1.343,1.341l0,24.334Z" style="fill:#af4030;fill-rule:nonzero;"/><path d="M98.995,16.794c0,0.464 -0.376,0.838 -0.839,0.838c-0.462,0 -0.838,-0.374 -0.838,-0.838c0,-0.463 0.376,-0.837 0.838,-0.837c0.463,0 0.839,0.374 0.839,0.837Z" style="fill:#91220f;fill-rule:nonzero;"/><path d="M106.88,16.794c0,0.464 -0.375,0.838 -0.837,0.838c-0.464,0 -0.838,-0.374 -0.838,-0.838c0,-0.463 0.374,-0.837 0.838,-0.837c0.462,0 0.837,0.374 0.837,0.837Z" style="fill:#91220f;fill-rule:nonzero;"/><path d="M114.766,16.794c0,0.464 -0.375,0.838 -0.838,0.838c-0.461,0 -0.838,-0.374 -0.838,-0.838c0,-0.463 0.377,-0.837 0.838,-0.837c0.463,0 0.838,0.374 0.838,0.837Z" style="fill:#91220f;fill-rule:nonzero;"/><path d="M98.995,26.76c0,0.464 -0.376,0.839 -0.839,0.839c-0.462,0 -0.838,-0.375 -0.838,-0.839c0,-0.463 0.376,-0.839 0.838,-0.839c0.463,0 0.839,0.376 0.839,0.839Z" style="fill:#91220f;fill-rule:nonzero;"/><path d="M106.88,26.76c0,0.464 -0.375,0.839 -0.837,0.839c-0.464,0 -0.838,-0.375 -0.838,-0.839c0,-0.463 0.374,-0.839 0.838,-0.839c0.462,0 0.837,0.376 0.837,0.839Z" style="fill:#91220f;fill-rule:nonzero;"/><path d="M114.766,26.76c0,0.464 -0.375,0.839 -0.838,0.839c-0.461,0 -0.838,-0.375 -0.838,-0.839c0,-0.463 0.377,-0.839 0.838,-0.839c0.463,0 0.838,0.376 0.838,0.839Z" style="fill:#91220f;fill-rule:nonzero;"/><path d="M126.354,4.803c0,0.367 -0.299,0.666 -0.666,0.666l-125.024,0c-0.364,0 -0.664,-0.299 -0.664,-0.666l0,-4.137c0,-0.366 0.3,-0.666 0.664,-0.666l125.024,0c0.367,0 0.666,0.3 0.666,0.666l0,4.137Z" style="fill:#af4030;fill-rule:nonzero;"/><path d="M5.616,34.549c0,0.364 -0.299,0.664 -0.666,0.664l-4.286,0c-0.364,0 -0.664,-0.3 -0.664,-0.664l0,-27.602c0,-0.366 0.3,-0.665 0.664,-0.665l4.286,0c0.367,0 0.666,0.299 0.666,0.665l0,27.602Z" style="fill:#af4030;fill-rule:nonzero;"/><path d="M126.354,34.549c0,0.364 -0.299,0.664 -0.666,0.664l-4.286,0c-0.366,0 -0.663,-0.3 -0.663,-0.664l0,-27.602c0,-0.366 0.297,-0.665 0.663,-0.665l4.286,0c0.367,0 0.666,0.299 0.666,0.665l0,27.602Z" style="fill:#af4030;fill-rule:nonzero;"/><path d="M34.238,4.064c0,-0.608 -0.5,-1.108 -1.109,-1.108l-25.37,0c-0.609,0 -1.109,0.5 -1.109,1.108l0,6.368c0,0.609 0.5,1.107 1.109,1.107l25.37,0c0.609,0 1.109,-0.498 1.109,-1.107l0,-6.368Z" style="fill:#91220f;fill-rule:nonzero;"/><path d="M34.238,7.626c0,0.61 -0.5,1.109 -1.109,1.109l-25.37,0c-0.609,0 -1.109,-0.499 -1.109,-1.109l0,-3.562c0,-0.608 0.5,-1.108 1.109,-1.108l25.37,0c0.609,0 1.109,0.5 1.109,1.108l0,3.562Z" style="fill:#bf4c3b;fill-rule:nonzero;"/><path d="M13.395,10.106c0,0.183 -0.374,0.33 -0.837,0.33c-0.462,0 -0.838,-0.147 -0.838,-0.33c0,-0.185 0.376,-0.333 0.838,-0.333c0.463,0 0.837,0.148 0.837,0.333Z" style="fill:#69190b;fill-rule:nonzero;"/><path d="M21.282,10.106c0,0.183 -0.375,0.33 -0.837,0.33c-0.463,0 -0.839,-0.147 -0.839,-0.33c0,-0.185 0.376,-0.333 0.839,-0.333c0.462,0 0.837,0.148 0.837,0.333Z" style="fill:#69190b;fill-rule:nonzero;"/><path d="M29.167,10.106c0,0.183 -0.376,0.33 -0.838,0.33c-0.462,0 -0.838,-0.147 -0.838,-0.33c0,-0.185 0.376,-0.333 0.838,-0.333c0.462,0 0.838,0.148 0.838,0.333Z" style="fill:#69190b;fill-rule:nonzero;"/><path d="M91.347,4.064c0,-0.608 -0.499,-1.108 -1.108,-1.108l-25.37,0c-0.61,0 -1.109,0.5 -1.109,1.108l0,6.368c0,0.609 0.499,1.107 1.109,1.107l25.37,0c0.609,0 1.108,-0.498 1.108,-1.107l0,-6.368Z" style="fill:#91220f;fill-rule:nonzero;"/><path d="M91.347,7.626c0,0.61 -0.499,1.109 -1.108,1.109l-25.37,0c-0.61,0 -1.109,-0.499 -1.109,-1.109l0,-3.562c0,-0.608 0.499,-1.108 1.109,-1.108l25.37,0c0.609,0 1.108,0.5 1.108,1.108l0,3.562Z" style="fill:#bf4c3b;fill-rule:nonzero;"/><path d="M70.507,10.106c0,0.183 -0.376,0.33 -0.838,0.33c-0.463,0 -0.84,-0.147 -0.84,-0.33c0,-0.185 0.377,-0.333 0.84,-0.333c0.462,0 0.838,0.148 0.838,0.333Z" style="fill:#69190b;fill-rule:nonzero;"/><path d="M78.391,10.106c0,0.183 -0.375,0.33 -0.836,0.33c-0.465,0 -0.838,-0.147 -0.838,-0.33c0,-0.185 0.373,-0.333 0.838,-0.333c0.461,0 0.836,0.148 0.836,0.333Z" style="fill:#69190b;fill-rule:nonzero;"/><path d="M86.277,10.106c0,0.183 -0.375,0.33 -0.838,0.33c-0.462,0 -0.838,-0.147 -0.838,-0.33c0,-0.185 0.376,-0.333 0.838,-0.333c0.463,0 0.838,0.148 0.838,0.333Z" style="fill:#69190b;fill-rule:nonzero;"/><path d="M62.773,31.957c0,0.742 -0.599,1.343 -1.342,1.343l-24.901,0c-0.741,0 -1.343,-0.601 -1.343,-1.343l0,-24.334c0,-0.74 0.602,-1.341 1.343,-1.341l24.901,0c0.743,0 1.342,0.601 1.342,1.341l0,24.334Z" style="fill:#af4030;fill-rule:nonzero;"/><path d="M41.933,16.794c0,0.464 -0.376,0.838 -0.838,0.838c-0.462,0 -0.838,-0.374 -0.838,-0.838c0,-0.463 0.376,-0.837 0.838,-0.837c0.462,0 0.838,0.374 0.838,0.837Z" style="fill:#91220f;fill-rule:nonzero;"/><path d="M49.819,16.794c0,0.464 -0.375,0.838 -0.838,0.838c-0.464,0 -0.838,-0.374 -0.838,-0.838c0,-0.463 0.374,-0.837 0.838,-0.837c0.463,0 0.838,0.374 0.838,0.837Z" style="fill:#91220f;fill-rule:nonzero;"/><path d="M57.703,16.794c0,0.464 -0.374,0.838 -0.836,0.838c-0.463,0 -0.839,-0.374 -0.839,-0.838c0,-0.463 0.376,-0.837 0.839,-0.837c0.462,0 0.836,0.374 0.836,0.837Z" style="fill:#91220f;fill-rule:nonzero;"/><path d="M41.933,26.76c0,0.464 -0.376,0.839 -0.838,0.839c-0.462,0 -0.838,-0.375 -0.838,-0.839c0,-0.463 0.376,-0.839 0.838,-0.839c0.462,0 0.838,0.376 0.838,0.839Z" style="fill:#91220f;fill-rule:nonzero;"/><path d="M49.819,26.76c0,0.464 -0.375,0.839 -0.838,0.839c-0.464,0 -0.838,-0.375 -0.838,-0.839c0,-0.463 0.374,-0.839 0.838,-0.839c0.463,0 0.838,0.376 0.838,0.839Z" style="fill:#91220f;fill-rule:nonzero;"/><path d="M57.703,26.76c0,0.464 -0.374,0.839 -0.836,0.839c-0.463,0 -0.839,-0.375 -0.839,-0.839c0,-0.463 0.376,-0.839 0.839,-0.839c0.462,0 0.836,0.376 0.836,0.839Z" style="fill:#91220f;fill-rule:nonzero;"/><path d="M62.773,4.064c0,-0.608 -0.497,-1.108 -1.107,-1.108l-25.371,0c-0.609,0 -1.108,0.5 -1.108,1.108l0,6.368c0,0.609 0.499,1.107 1.108,1.107l25.371,0c0.61,0 1.107,-0.498 1.107,-1.107l0,-6.368Z" style="fill:#91220f;fill-rule:nonzero;"/><path d="M62.773,7.626c0,0.61 -0.497,1.109 -1.107,1.109l-25.371,0c-0.609,0 -1.108,-0.499 -1.108,-1.109l0,-3.562c0,-0.608 0.499,-1.108 1.108,-1.108l25.371,0c0.61,0 1.107,0.5 1.107,1.108l0,3.562Z" style="fill:#bf4c3b;fill-rule:nonzero;"/><path d="M41.933,10.106c0,0.183 -0.376,0.33 -0.838,0.33c-0.462,0 -0.839,-0.147 -0.839,-0.33c0,-0.185 0.377,-0.333 0.839,-0.333c0.462,0 0.838,0.148 0.838,0.333Z" style="fill:#69190b;fill-rule:nonzero;"/><path d="M49.819,10.106c0,0.183 -0.375,0.33 -0.838,0.33c-0.464,0 -0.838,-0.147 -0.838,-0.33c0,-0.185 0.374,-0.333 0.838,-0.333c0.463,0 0.838,0.148 0.838,0.333Z" style="fill:#69190b;fill-rule:nonzero;"/><path d="M57.703,10.106c0,0.183 -0.374,0.33 -0.836,0.33c-0.463,0 -0.839,-0.147 -0.839,-0.33c0,-0.185 0.376,-0.333 0.839,-0.333c0.462,0 0.836,0.148 0.836,0.333Z" style="fill:#69190b;fill-rule:nonzero;"/><path d="M119.837,4.064c0,-0.608 -0.5,-1.108 -1.11,-1.108l-25.368,0c-0.612,0 -1.111,0.5 -1.111,1.108l0,6.368c0,0.609 0.499,1.107 1.111,1.107l25.368,0c0.61,0 1.11,-0.498 1.11,-1.107l0,-6.368Z" style="fill:#91220f;fill-rule:nonzero;"/><path d="M119.837,7.626c0,0.61 -0.5,1.109 -1.11,1.109l-25.368,0c-0.612,0 -1.111,-0.499 -1.111,-1.109l0,-3.562c0,-0.608 0.499,-1.108 1.111,-1.108l25.368,0c0.61,0 1.11,0.5 1.11,1.108l0,3.562Z" style="fill:#bf4c3b;fill-rule:nonzero;"/><path d="M98.994,10.106c0,0.183 -0.375,0.33 -0.838,0.33c-0.462,0 -0.839,-0.147 -0.839,-0.33c0,-0.185 0.377,-0.333 0.839,-0.333c0.463,0 0.838,0.148 0.838,0.333Z" style="fill:#69190b;fill-rule:nonzero;"/><path d="M106.88,10.106c0,0.183 -0.375,0.33 -0.837,0.33c-0.464,0 -0.838,-0.147 -0.838,-0.33c0,-0.185 0.374,-0.333 0.838,-0.333c0.462,0 0.837,0.148 0.837,0.333Z" style="fill:#69190b;fill-rule:nonzero;"/><path d="M114.766,10.106c0,0.183 -0.376,0.33 -0.838,0.33c-0.463,0 -0.838,-0.147 -0.838,-0.33c0,-0.185 0.375,-0.333 0.838,-0.333c0.462,0 0.838,0.148 0.838,0.333Z" style="fill:#69190b;fill-rule:nonzero;"/></svg>