<?xml version="1.0" encoding="UTF-8" standalone="no"?><!DOCTYPE svg PUBLIC "-//W3C//DTD SVG 1.1//EN" "http://www.w3.org/Graphics/SVG/1.1/DTD/svg11.dtd"><svg width="100%" height="100%" viewBox="0 0 120 119" version="1.1" xmlns="http://www.w3.org/2000/svg" xmlns:xlink="http://www.w3.org/1999/xlink" xml:space="preserve" xmlns:serif="http://www.serif.com/" style="fill-rule:evenodd;clip-rule:evenodd;stroke-linejoin:round;stroke-miterlimit:1.41421;"><rect x="49.047" y="95.403" width="21.649" height="18.606" style="fill:#73501b;"/><path d="M49.047,118.787l21.497,0c1.317,0 2.387,-1.069 2.387,-2.391l0,-20.696l0,-0.799l-2.387,0l0,19.108l-21.497,0l0,-19.108l-2.388,0l0,21.495c0,1.322 1.067,2.391 2.388,2.391Z" style="fill:#ae7a29;fill-rule:nonzero;"/><path d="M69.869,113.231l0,-16.979l0,-0.744c0,-1.223 -1.004,-2.215 -2.242,-2.215l-15.67,0c-1.232,0 -2.239,0.992 -2.239,2.215l0,17.723l20.151,0Z" style="fill:#ae7a29;fill-rule:nonzero;"/><rect x="50.195" y="112.258" width="19.214" height="5.657" style="fill:#b78840;"/><rect x="50.195" y="112.258" width="19.214" height="3.727" style="fill:#8c6221;"/><rect x="48.894" y="4.78" width="21.649" height="18.607" style="fill:#73501b;"/><path d="M70.544,0l-21.497,0c-1.321,0 -2.388,1.072 -2.388,2.391l0,21.498l2.388,0l0,-0.8l0,-18.309l21.497,0l0,19.109l2.387,0l0,-21.497c0,-1.32 -1.067,-2.392 -2.387,-2.392Z" style="fill:#ae7a29;fill-rule:nonzero;"/><path d="M49.724,5.561l0,17.72c0,1.222 1.001,2.213 2.239,2.213l15.67,0c1.232,0 2.236,-0.991 2.236,-2.213l0,-17.72l-20.145,0Z" style="fill:#ae7a29;fill-rule:nonzero;"/><path d="M69.395,0.876l-19.217,-0.002l0,5.658l19.217,0l0,-5.656Z" style="fill:#b78840;fill-rule:nonzero;"/><path d="M69.395,2.807l-19.217,-0.002l0,3.727l19.217,0l0,-3.725Z" style="fill:#8c6221;fill-rule:nonzero;"/><rect x="4.78" y="50.281" width="18.609" height="21.651" style="fill:#73501b;"/><path d="M0,50.281l0,21.497c0,1.32 1.073,2.391 2.392,2.392l21.499,0l0,-2.392l-0.799,0l-18.312,0l0,-21.497l19.111,0l0,-2.388l-21.499,0c-1.319,0 -2.392,1.068 -2.392,2.388Z" style="fill:#ae7a29;fill-rule:nonzero;"/><path d="M5.561,71.103l17.721,0c1.223,0 2.215,-1.002 2.215,-2.24l0,-15.667c0,-1.236 -0.992,-2.239 -2.215,-2.239l-17.721,0l0,20.146Z" style="fill:#ae7a29;fill-rule:nonzero;"/><rect x="0.877" y="51.431" width="5.658" height="19.216" style="fill:#b78840;"/><rect x="2.807" y="51.431" width="3.728" height="19.216" style="fill:#8c6221;"/><rect x="96.051" y="50.129" width="18.61" height="21.651" style="fill:#73501b;"/><path d="M119.439,71.779l0,-21.494c0,-1.323 -1.073,-2.392 -2.39,-2.392l-20.698,0l-0.802,0l0,2.392l19.112,0l0,21.494l-19.112,0l0,2.391l21.5,0c1.317,0 2.39,-1.071 2.39,-2.391Z" style="fill:#ae7a29;fill-rule:nonzero;"/><path d="M113.879,50.96l-16.978,-0.003l-0.744,0.003c-1.222,-0.003 -2.215,1.003 -2.215,2.237l0,15.672c0,1.233 0.993,2.236 2.215,2.236l17.722,0l0,-20.145Z" style="fill:#ae7a29;fill-rule:nonzero;"/><path d="M118.562,70.631l0,-19.218l-5.655,0l0,19.219l5.655,-0.001Z" style="fill:#b78840;fill-rule:nonzero;"/><path d="M116.634,70.631l0,-19.218l-3.727,0l0,19.219l3.727,-0.001Z" style="fill:#8c6221;fill-rule:nonzero;"/><rect x="31.281" y="30.956" width="56.878" height="56.877" style="fill:#424242;"/></svg>