<?xml version="1.0" encoding="UTF-8" standalone="no"?><!DOCTYPE svg PUBLIC "-//W3C//DTD SVG 1.1//EN" "http://www.w3.org/Graphics/SVG/1.1/DTD/svg11.dtd"><svg id="chaiseunique" width="100%" height="100%" viewBox="0 0 57 72" version="1.1" xmlns="http://www.w3.org/2000/svg" xmlns:xlink="http://www.w3.org/1999/xlink" xml:space="preserve" xmlns:serif="http://www.serif.com/" style="fill-rule:evenodd;clip-rule:evenodd;stroke-linejoin:round;stroke-miterlimit:1.41421;"><path d="M0,62.9c0,1.509 1.223,2.733 2.735,2.733l50.758,0c1.514,0 2.739,-1.224 2.739,-2.733l0,-37.799c0,-1.509 -1.225,-2.735 -2.739,-2.735l-50.758,0c-1.512,0 -2.735,1.226 -2.735,2.735l0,37.799Z" style="fill:#af4030;fill-rule:nonzero;"/><path d="M39.5,32.997c0,0.944 0.768,1.71 1.708,1.71c0.942,0 1.71,-0.766 1.71,-1.71c0,-0.94 -0.768,-1.705 -1.71,-1.705c-0.94,0 -1.708,0.765 -1.708,1.705Z" style="fill:#91220f;fill-rule:nonzero;"/><path d="M13.312,32.997c0,0.944 0.768,1.71 1.708,1.71c0.944,0 1.71,-0.766 1.71,-1.71c0,-0.94 -0.766,-1.705 -1.71,-1.705c-0.94,0 -1.708,0.765 -1.708,1.705Z" style="fill:#91220f;fill-rule:nonzero;"/><path d="M39.5,53.314c0,0.942 0.768,1.707 1.708,1.707c0.942,0 1.71,-0.765 1.71,-1.707c0,-0.945 -0.768,-1.71 -1.71,-1.71c-0.94,0 -1.708,0.765 -1.708,1.71Z" style="fill:#91220f;fill-rule:nonzero;"/><path d="M13.312,53.314c0,0.942 0.768,1.707 1.708,1.707c0.944,0 1.71,-0.765 1.71,-1.707c0,-0.945 -0.766,-1.71 -1.71,-1.71c-0.94,0 -1.708,0.765 -1.708,1.71Z" style="fill:#91220f;fill-rule:nonzero;"/><path d="M0,6.046c0,-1.245 1.015,-2.26 2.257,-2.26l51.718,0c1.238,0 2.257,1.015 2.257,2.26l0,12.975c0,1.243 -1.019,2.26 -2.257,2.26l-51.718,0c-1.242,0 -2.257,-1.017 -2.257,-2.26l0,-12.975Z" style="fill:#91220f;fill-rule:nonzero;"/><path d="M39.5,18.357c0,0.376 0.768,0.676 1.708,0.676c0.942,0 1.71,-0.3 1.71,-0.676c0,-0.373 -0.768,-0.675 -1.71,-0.675c-0.94,0 -1.708,0.302 -1.708,0.675Z" style="fill:#69190b;fill-rule:nonzero;"/><path d="M13.312,18.357c0,0.376 0.768,0.676 1.708,0.676c0.944,0 1.71,-0.3 1.71,-0.676c0,-0.373 -0.766,-0.675 -1.71,-0.675c-0.94,0 -1.708,0.302 -1.708,0.675Z" style="fill:#69190b;fill-rule:nonzero;"/><path d="M39.5,13.21c0,0.376 0.768,0.676 1.708,0.676c0.942,0 1.71,-0.3 1.71,-0.676c0,-0.373 -0.768,-0.675 -1.71,-0.675c-0.94,0 -1.708,0.302 -1.708,0.675Z" style="fill:#69190b;fill-rule:nonzero;"/><path d="M13.312,13.21c0,0.376 0.768,0.676 1.708,0.676c0.944,0 1.71,-0.3 1.71,-0.676c0,-0.373 -0.766,-0.675 -1.71,-0.675c-0.94,0 -1.708,0.302 -1.708,0.675Z" style="fill:#69190b;fill-rule:nonzero;"/><path d="M55.338,6.876c0,0.667 -0.544,1.212 -1.211,1.212l-52.022,0c-0.666,0 -1.211,-0.545 -1.211,-1.212l0,-0.959c0,-0.666 0.545,-1.211 1.211,-1.211l52.022,0c0.667,0 1.211,0.545 1.211,1.211l0,0.959Z" style="fill:#bf4c3b;fill-rule:nonzero;"/><rect x="2.257" y="21.281" width="51.235" height="1.085" style="fill:#383838;"/><rect x="5.227" y="65.633" width="3.432" height="6.285" style="fill:#383838;"/><rect x="47.515" y="65.633" width="3.43" height="6.285" style="fill:#383838;"/><rect x="5.227" y="0" width="3.432" height="3.786" style="fill:#383838;"/><rect x="47.515" y="0" width="3.43" height="3.786" style="fill:#383838;"/></svg>