<?xml version="1.0" encoding="UTF-8" standalone="no"?><!DOCTYPE svg PUBLIC "-//W3C//DTD SVG 1.1//EN" "http://www.w3.org/Graphics/SVG/1.1/DTD/svg11.dtd"><svg id="comptoiravecchaise" width="100%" height="100%" viewBox="0 0 40 98" version="1.1" xmlns="http://www.w3.org/2000/svg" xmlns:xlink="http://www.w3.org/1999/xlink" xml:space="preserve" xmlns:serif="http://www.serif.com/" style="fill-rule:evenodd;clip-rule:evenodd;stroke-linejoin:round;stroke-miterlimit:1.41421;"><path d="M0,0l0,97.955l19.032,0l0,-97.955l-19.032,0Z" style="fill:#424242;"/><path d="M8.859,29.853c-1.065,0 -1.93,-0.864 -1.93,-1.93c0,-1.064 0.865,-1.929 1.93,-1.929c1.066,0 1.928,0.865 1.928,1.929c0,1.066 -0.862,1.93 -1.928,1.93Z" style="fill:#e8dabb;fill-rule:nonzero;"/><path d="M8.395,23.25c-2.944,0 -5.331,-2.386 -5.331,-5.332c0,-2.945 2.387,-5.33 5.331,-5.33c2.945,0 5.333,2.385 5.333,5.33c0,2.946 -2.388,5.332 -5.333,5.332Z" style="fill:#f5eee0;fill-rule:nonzero;"/><path d="M8.395,21.331c-1.884,0 -3.411,-1.528 -3.411,-3.413c0,-1.883 1.527,-3.41 3.411,-3.41c1.885,0 3.413,1.527 3.413,3.41c0,1.885 -1.528,3.413 -3.413,3.413Z" style="fill:#e8dabb;fill-rule:nonzero;"/><path d="M8.859,29.51c-0.877,0 -1.587,-0.711 -1.587,-1.587c0,-0.875 0.71,-1.586 1.587,-1.586c0.875,0 1.585,0.711 1.585,1.586c0,0.876 -0.71,1.587 -1.585,1.587Z" style="fill:#f5eee0;fill-rule:nonzero;"/><path d="M8.665,29.8l0,1.092l0.388,0l0,-1.092l-0.388,0Z" style="fill:#f5eee0;"/><path d="M8.395,7.996l0,0.318l6.796,0l0,-0.318l-6.796,0Z" style="fill:#888;"/><path d="M8.279,7.344c-0.746,0 -1.35,0.364 -1.35,0.812c0,0.447 0.604,0.811 1.35,0.811c0.743,0 1.348,-0.364 1.348,-0.811c0,-0.448 -0.605,-0.812 -1.348,-0.812Z" style="fill:#888;fill-rule:nonzero;"/><path d="M25.183,88.125c-0.935,0 -1.693,-0.757 -1.693,-1.692l0,-11.764c0,-0.936 0.758,-1.693 1.693,-1.693l13.037,0c0.933,0 1.691,0.757 1.691,1.693l0,11.764c0,0.935 -0.758,1.692 -1.691,1.692l-13.037,0Z" style="fill:#59462f;fill-rule:nonzero;"/><path d="M23.914,88.125c-0.935,0 -1.692,-0.757 -1.692,-1.692l0,-11.764c0,-0.936 0.757,-1.693 1.692,-1.693l11.768,0c0.933,0 1.692,0.757 1.692,1.693l0,11.764c0,0.935 -0.759,1.692 -1.692,1.692l-11.768,0Z" style="fill:#735a3d;fill-rule:nonzero;"/><path d="M25.183,56.554c-0.935,0 -1.693,-0.757 -1.693,-1.694l0,-11.766c0,-0.935 0.758,-1.693 1.693,-1.693l13.037,0c0.933,0 1.691,0.758 1.691,1.693l0,11.766c0,0.937 -0.758,1.694 -1.691,1.694l-13.037,0Z" style="fill:#59462f;fill-rule:nonzero;"/><path d="M23.914,56.554c-0.935,0 -1.692,-0.757 -1.692,-1.694l0,-11.766c0,-0.935 0.757,-1.693 1.692,-1.693l11.768,0c0.933,0 1.692,0.758 1.692,1.693l0,11.766c0,0.937 -0.759,1.694 -1.692,1.694l-11.768,0Z" style="fill:#735a3d;fill-rule:nonzero;"/><path d="M25.183,24.98c-0.935,0 -1.693,-0.758 -1.693,-1.692l0,-11.767c0,-0.934 0.758,-1.693 1.693,-1.693l13.037,0c0.933,0 1.691,0.759 1.691,1.693l0,11.767c0,0.934 -0.758,1.692 -1.691,1.692l-13.037,0Z" style="fill:#59462f;fill-rule:nonzero;"/><path d="M23.914,24.98c-0.935,0 -1.692,-0.758 -1.692,-1.692l0,-11.767c0,-0.934 0.757,-1.693 1.692,-1.693l11.768,0c0.933,0 1.692,0.759 1.692,1.693l0,11.767c0,0.934 -0.759,1.692 -1.692,1.692l-11.768,0Z" style="fill:#735a3d;fill-rule:nonzero;"/></svg>