<?xml version="1.0" encoding="UTF-8" standalone="no"?><!DOCTYPE svg PUBLIC "-//W3C//DTD SVG 1.1//EN" "http://www.w3.org/Graphics/SVG/1.1/DTD/svg11.dtd"><svg id="table_caree" width="100%" height="100%" viewBox="0 0 116 111" version="1.1" xmlns="http://www.w3.org/2000/svg" xmlns:xlink="http://www.w3.org/1999/xlink" xml:space="preserve" xmlns:serif="http://www.serif.com/" style="fill-rule:evenodd;clip-rule:evenodd;stroke-linejoin:round;stroke-miterlimit:1.41421;"><path d="M0,55.093l0,-55.093l115.885,0l0,110.185l-57.943,0l-57.942,0l0,-55.092Z" style="fill:#704b2c;fill-rule:nonzero;"/><path d="M0,56.043l0,-54.143l56.992,0l56.993,0.19l0,108.095l-56.993,0l-56.992,0l0,-54.142Z" style="fill:#9c6739;fill-rule:nonzero;"/><path d="M0,104.676c0,-3.039 0.95,-5.889 2.28,-6.269c1.519,-0.57 2.089,-12.728 1.709,-44.264c0,-23.937 0.19,-45.024 0.95,-46.924c0.95,-3.23 4.37,-3.42 53.193,-3.42l52.053,0.19l0.19,11.779c0,6.459 0.19,30.396 0.38,53.193l0.38,41.224l-55.472,0l-55.663,0l0,-5.509Zm33.816,-19.567c-1.14,-3.42 -5.32,-3.99 -5.32,-0.76c0,1.71 1.33,3.039 3.04,3.039c1.71,0 2.659,-0.949 2.28,-2.279Zm53.572,-0.57c0,-1.52 -1.329,-2.85 -2.849,-2.85c-1.52,0 -2.85,1.33 -2.85,2.85c0,1.52 1.33,2.849 2.85,2.849c1.52,0 2.849,-1.329 2.849,-2.849Zm-53.193,-53.193c0,-1.52 -1.329,-2.85 -2.849,-2.85c-1.52,0 -2.85,1.33 -2.85,2.85c0,1.52 1.33,2.849 2.85,2.849c1.52,0 2.849,-1.329 2.849,-2.849Zm52.813,0.57c-1.139,-3.42 -5.319,-3.99 -5.319,-0.76c0,1.71 1.33,3.039 3.04,3.039c1.71,0 2.659,-0.949 2.279,-2.279Z" style="fill:#616765;fill-rule:nonzero;"/><path d="M0,104.676c0,-3.039 0.95,-5.889 2.28,-6.269c1.519,-0.57 2.089,-12.728 1.709,-44.264c0,-23.937 0.19,-45.024 0.95,-46.924c0.95,-3.23 4.37,-3.42 53.193,-3.42l52.053,0.19l0.19,11.779c0,6.459 0.19,30.396 0.38,53.193l0.38,41.224l-55.472,0l-55.663,0l0,-5.509Zm34.195,-20.137c0,-1.52 -1.329,-2.85 -2.849,-2.85c-1.52,0 -2.85,1.33 -2.85,2.85c0,1.52 1.33,2.849 2.85,2.849c1.52,0 2.849,-1.329 2.849,-2.849Zm53.193,0c0,-1.52 -1.329,-2.85 -2.849,-2.85c-1.52,0 -2.85,1.33 -2.85,2.85c0,1.52 1.33,2.849 2.85,2.849c1.52,0 2.849,-1.329 2.849,-2.849Zm-53.193,-53.193c0,-1.52 -1.329,-2.85 -2.849,-2.85c-1.52,0 -2.85,1.33 -2.85,2.85c0,1.52 1.33,2.849 2.85,2.849c1.52,0 2.849,-1.329 2.849,-2.849Zm53.193,0c0,-1.52 -1.329,-2.85 -2.849,-2.85c-1.52,0 -2.85,1.33 -2.85,2.85c0,1.52 1.33,2.849 2.85,2.849c1.52,0 2.849,-1.329 2.849,-2.849Z" style="fill:#c3772d;fill-rule:nonzero;"/><path d="M0,104.106l0.19,-6.269l2.47,4.749c2.659,4.75 2.469,7.599 -0.95,7.599c-0.95,0 -1.71,-2.849 -1.71,-6.079Z" style="fill:#728589;fill-rule:nonzero;"/><path d="M8.359,108.476c0.76,-0.95 0,-2.09 -1.14,-2.47c-1.9,-0.76 -2.66,-12.158 -3.04,-47.304c-0.19,-25.456 0,-48.253 0.57,-50.533l0.95,-4.37l52.243,0l52.243,0.19l0.19,11.779c0.57,77.7 0.57,94.417 -0.95,94.417c-0.759,0 -0.949,-2.279 -0.189,-5.129l1.139,-5.129l-5.319,5.319c-2.85,2.85 -5.509,4.369 -5.889,3.23c-0.38,-1.14 -1.52,-2.09 -2.47,-2.09c-1.14,0 -1.33,0.95 -0.76,1.9c0.76,1.329 -10.448,1.709 -32.675,1.519c-20.708,0 -30.586,-0.759 -25.267,-1.519l8.549,-1.33l-11.019,-0.19c-7.029,-0.19 -10.638,0.38 -9.878,1.52c0.759,1.139 -2.47,1.899 -8.549,1.899c-5.32,0 -9.309,-0.76 -8.739,-1.709Zm70.101,-1.52c-2.47,-0.38 -6.27,-0.38 -8.549,0c-2.47,0.38 -0.57,0.76 4.179,0.76c4.75,0 6.649,-0.38 4.37,-0.76Zm-44.265,-22.417c0,-1.52 -1.329,-2.85 -2.849,-2.85c-1.52,0 -2.85,1.33 -2.85,2.85c0,1.52 1.33,2.849 2.85,2.849c1.52,0 2.849,-1.329 2.849,-2.849Zm53.193,0c0,-1.52 -1.329,-2.85 -2.849,-2.85c-1.52,0 -2.85,1.33 -2.85,2.85c0,1.52 1.33,2.849 2.85,2.849c1.52,0 2.849,-1.329 2.849,-2.849Zm-53.193,-53.193c0,-1.52 -1.329,-2.85 -2.849,-2.85c-1.52,0 -2.85,1.33 -2.85,2.85c0,1.52 1.33,2.849 2.85,2.849c1.52,0 2.849,-1.329 2.849,-2.849Zm53.193,0c0,-1.52 -1.329,-2.85 -2.849,-2.85c-1.52,0 -2.85,1.33 -2.85,2.85c0,1.52 1.33,2.849 2.85,2.849c1.52,0 2.849,-1.329 2.849,-2.849Z" style="fill:#728589;fill-rule:nonzero;"/><path d="M0,104.106l0.19,-6.269l2.47,4.749c2.659,4.75 2.469,7.599 -0.95,7.599c-0.95,0 -1.71,-2.849 -1.71,-6.079Z" style="fill:#aa926c;fill-rule:nonzero;"/><path d="M8.359,108.476c0.76,-0.95 0,-2.09 -1.14,-2.47c-1.9,-0.76 -2.66,-12.158 -3.04,-47.304c-0.19,-25.456 0,-48.253 0.57,-50.533l0.95,-4.37l52.243,0l52.243,0.19l0.19,11.779c0.57,77.7 0.57,94.417 -0.95,94.417c-0.759,0 -0.949,-2.279 -0.189,-5.129l1.139,-5.129l-5.319,5.319c-2.85,2.85 -5.509,4.369 -5.889,3.23c-0.38,-1.14 -1.52,-2.09 -2.47,-2.09c-1.14,0 -1.33,0.95 -0.76,1.9c0.76,1.329 -10.448,1.709 -32.675,1.519c-20.708,0 -30.586,-0.759 -25.267,-1.519l8.549,-1.33l-11.019,-0.19c-7.029,-0.19 -10.638,0.38 -9.878,1.52c0.759,1.139 -2.47,1.899 -8.549,1.899c-5.32,0 -9.309,-0.76 -8.739,-1.709Zm70.101,-1.52c-2.47,-0.38 -6.27,-0.38 -8.549,0c-2.47,0.38 -0.57,0.76 4.179,0.76c4.75,0 6.649,-0.38 4.37,-0.76Zm-43.505,-22.417c0.76,-1.9 -0.19,-2.85 -2.659,-2.85c-2.09,0 -3.8,1.33 -3.8,2.85c0,1.52 1.14,2.849 2.66,2.849c1.52,0 3.039,-1.329 3.799,-2.849Zm52.433,0c0,-1.52 -1.329,-2.85 -2.849,-2.85c-1.52,0 -2.85,1.33 -2.85,2.85c0,1.52 1.33,2.849 2.85,2.849c1.52,0 2.849,-1.329 2.849,-2.849Zm-53.193,-53.193c0,-1.52 -1.329,-2.85 -2.849,-2.85c-1.52,0 -2.85,1.33 -2.85,2.85c0,1.52 1.33,2.849 2.85,2.849c1.52,0 2.849,-1.329 2.849,-2.849Zm53.193,0c0,-1.52 -1.139,-2.85 -2.659,-2.85c-3.23,0 -5.32,2.66 -3.61,4.56c2.28,2.279 6.269,1.139 6.269,-1.71Z" style="fill:#aa926c;fill-rule:nonzero;"/><path d="M0.76,107.526c-1.9,-5.13 0.38,-8.169 2.66,-3.61c1.519,2.66 1.709,4.56 0.379,5.32c-1.139,0.569 -2.469,-0.19 -3.039,-1.71Z" style="fill:#d19f58;fill-rule:nonzero;"/><path d="M8.739,107.336c0.76,-1.52 0.19,-2.85 -0.95,-2.85c-1.52,0 -2.09,-14.628 -2.09,-49.393l0,-49.394l104.486,0l0,43.504c0,23.747 0.57,47.304 1.14,52.244c0.95,6.269 0.57,8.738 -1.14,8.738c-1.519,0 -1.899,-1.709 -0.949,-5.129c1.139,-5.129 1.139,-5.129 -2.66,-1.52c-3.04,2.66 -3.42,3.8 -1.71,4.94c1.52,0.949 0.95,1.519 -1.9,1.139c-2.279,0 -4.179,-0.949 -4.179,-1.709c0,-0.76 -0.95,-1.52 -2.09,-1.52c-0.95,0 -1.33,0.95 -0.76,1.9c0.76,1.329 -10.448,1.709 -32.675,1.519c-20.708,0 -30.586,-0.759 -25.267,-1.519l8.549,-1.33l-8.549,-0.38c-4.749,0 -11.778,-0.76 -15.578,-1.33c-4.369,-0.76 -7.219,-0.57 -7.219,0.57c0,1.14 2.09,1.71 4.749,1.52c2.66,-0.38 5.13,0.19 5.89,1.14c0.569,0.949 -3.23,1.709 -8.549,1.709c-7.789,0 -9.309,-0.57 -8.549,-2.849Zm69.721,-0.38c-2.47,-0.38 -6.27,-0.38 -8.549,0c-2.47,0.38 -0.57,0.76 4.179,0.76c4.75,0 6.649,-0.38 4.37,-0.76Zm-42.365,-21.467c0,-2.47 -1.33,-3.8 -3.799,-3.8c-2.47,0 -3.8,1.33 -3.8,3.8c0,2.469 1.33,3.799 3.8,3.799c2.469,0 3.799,-1.33 3.799,-3.799Zm52.813,0.57c0.95,-3.23 -4.939,-5.51 -7.599,-2.85c-1.14,1.14 -1.33,2.85 -0.57,4.179c1.71,2.66 7.029,1.71 8.169,-1.329Zm-53.193,-54.333c0.38,-2.09 -0.57,-3.23 -3.039,-3.23c-4.56,0 -6.08,1.52 -4.75,4.94c1.33,3.799 7.029,2.469 7.789,-1.71Zm53.193,1.14c0.95,-3.23 -4.939,-5.51 -7.599,-2.85c-1.14,1.14 -1.33,2.85 -0.57,4.179c1.71,2.66 7.029,1.71 8.169,-1.329Z" style="fill:#d19f58;fill-rule:nonzero;"/><path d="M7.979,104.866c-1.71,-0.57 -2.28,-14.438 -2.28,-49.963l0,-49.204l104.486,0l0,46.164c0,38.945 -0.38,46.734 -3.039,50.343c-2.85,4.37 -3.04,4.37 -49.964,3.8c-25.836,-0.19 -48.063,-0.76 -49.203,-1.14Zm28.116,-19.377c0,-2.47 -1.33,-3.8 -3.799,-3.8c-2.47,0 -3.8,1.33 -3.8,3.8c0,2.469 1.33,3.799 3.8,3.799c2.469,0 3.799,-1.33 3.799,-3.799Zm52.813,0.57c0.95,-3.23 -4.939,-5.51 -7.599,-2.85c-1.14,1.14 -1.33,2.85 -0.57,4.179c1.71,2.66 7.029,1.71 8.169,-1.329Zm-53.193,-54.333c0.38,-2.09 -0.57,-3.23 -3.039,-3.23c-4.56,0 -6.08,1.52 -4.75,4.94c1.33,3.799 7.029,2.469 7.789,-1.71Zm53.193,1.14c0.95,-3.23 -4.939,-5.51 -7.599,-2.85c-1.14,1.14 -1.33,2.85 -0.57,4.179c1.71,2.66 7.029,1.71 8.169,-1.329Z" style="fill:#9ea5a4;fill-rule:nonzero;"/><path d="M15.768,104.866l-10.069,-0.57l0,-49.393l0,-49.204l104.486,0l0,46.164c0,43.694 -0.19,46.354 -3.799,50.343c-3.8,3.99 -5.129,3.99 -42.364,3.61c-21.088,-0.19 -42.935,-0.57 -48.254,-0.95Zm20.327,-19.377c0,-2.85 -1.33,-3.8 -4.749,-3.8c-4.56,0 -6.459,3.42 -3.42,6.269c2.85,2.85 8.169,1.33 8.169,-2.469Zm53.193,0c0,-2.85 -1.33,-3.8 -4.749,-3.8c-3.42,0 -4.75,0.95 -4.75,3.8c0,2.849 1.33,3.799 4.75,3.799c3.419,0 4.749,-0.95 4.749,-3.799Zm-53.193,-53.193c0,-2.85 -1.33,-3.8 -4.749,-3.8c-4.56,0 -6.459,3.42 -3.42,6.269c2.85,2.85 8.169,1.33 8.169,-2.469Zm53.193,0c0,-2.85 -1.33,-3.8 -4.749,-3.8c-4.56,0 -6.459,3.42 -3.42,6.269c2.85,2.85 8.169,1.33 8.169,-2.469Z" style="fill:#dccca2;fill-rule:nonzero;"/><path d="M15.768,104.866l-10.069,-0.57l0,-49.393l0,-49.204l51.863,0.38l51.674,0.57l0.569,44.834c0.38,41.415 0.19,45.214 -3.039,49.204c-3.42,4.369 -4.37,4.369 -42.365,4.559c-21.277,0.19 -43.314,0 -48.633,-0.38Zm20.327,-19.187c0,-4.18 -5.509,-6.839 -8.169,-4.18c-2.849,2.85 0,7.789 4.37,7.789c2.469,0 3.799,-1.33 3.799,-3.609Zm53.193,0c0,-1.9 -1.71,-3.99 -3.609,-4.56c-4.56,-1.14 -5.89,0 -5.89,4.75c0,2.469 1.33,3.419 4.75,3.419c3.419,0 4.749,-0.95 4.749,-3.609Zm-53.193,-53.383c0,-2.85 -1.33,-3.8 -4.749,-3.8c-4.56,0 -6.459,3.42 -3.42,6.269c2.85,2.85 8.169,1.33 8.169,-2.469Zm53.193,0c0,-2.85 -1.33,-3.8 -4.749,-3.8c-4.56,0 -6.459,3.42 -3.42,6.269c2.85,2.85 8.169,1.33 8.169,-2.469Z" style="fill:#ced2cb;fill-rule:nonzero;"/></svg>