<?xml version="1.0" encoding="UTF-8" standalone="no"?><!DOCTYPE svg PUBLIC "-//W3C//DTD SVG 1.1//EN" "http://www.w3.org/Graphics/SVG/1.1/DTD/svg11.dtd"><svg width="100%" height="100%" viewBox="0 0 137 119" version="1.1" xmlns="http://www.w3.org/2000/svg" xmlns:xlink="http://www.w3.org/1999/xlink" xml:space="preserve" xmlns:serif="http://www.serif.com/" style="fill-rule:evenodd;clip-rule:evenodd;stroke-linejoin:round;stroke-miterlimit:1.41421;"><path d="M54.804,6.759l0,23.843c0,1.645 1.347,2.978 3.012,2.978l21.085,0c1.657,0 3.008,-1.333 3.008,-2.978l0,-23.843l-27.105,0Z" style="fill:#4a4a4a;fill-rule:nonzero;"/><path d="M81.909,0.002l-27.105,-0.002l0,8.523l27.105,0l0,-8.521Z" style="fill:#696969;fill-rule:nonzero;"/><path d="M81.909,2.911l-27.105,-0.002l0,5.614l27.105,0l0,-5.612Z" style="fill:#383838;fill-rule:nonzero;"/><path d="M79.05,9.358c1.093,0 1.987,0.894 1.987,1.986l0,19.29c0,1.092 -0.894,1.986 -1.987,1.986l-21.357,0c-1.091,0 -1.987,-0.894 -1.987,-1.986l0,-19.29c0,-1.092 0.896,-1.986 1.987,-1.986l21.357,0Z" style="fill:#d9dacf;fill-rule:nonzero;"/><path d="M19.404,115.026l19.782,-11.42l0.867,-0.5c1.426,-0.823 1.907,-2.655 1.072,-4.099l-10.543,-18.26c-0.825,-1.432 -2.656,-1.935 -4.081,-1.113l-20.646,11.919l13.549,23.473Z" style="fill:#4a4a4a;fill-rule:nonzero;"/><path d="M0,94.934l13.55,23.472l7.382,-4.262l-13.553,-23.471l-7.379,4.261Z" style="fill:#696969;fill-rule:nonzero;"/><path d="M2.521,93.478l13.55,23.475l4.861,-2.809l-13.553,-23.471l-4.858,2.805Z" style="fill:#383838;fill-rule:nonzero;"/><path d="M9.532,92.729c-0.546,-0.946 -0.218,-2.167 0.726,-2.712l16.708,-9.645c0.942,-0.547 2.166,-0.219 2.714,0.727l10.679,18.494c0.544,0.948 0.216,2.168 -0.728,2.714l-16.708,9.646c-0.944,0.546 -2.166,0.218 -2.714,-0.725l-10.677,-18.499Z" style="fill:#d9dacf;fill-rule:nonzero;"/><path d="M130.866,91.549l-19.779,-11.418l-0.867,-0.501c-1.426,-0.826 -3.252,-0.325 -4.086,1.117l-10.542,18.26c-0.829,1.435 -0.348,3.272 1.077,4.095l20.646,11.92l13.551,-23.473Z" style="fill:#4a4a4a;fill-rule:nonzero;"/><path d="M123.168,118.402l13.555,-23.472l-7.382,-4.263l-13.552,23.475l7.379,4.26Z" style="fill:#696969;fill-rule:nonzero;"/><path d="M120.649,116.947l13.555,-23.473l-4.863,-2.807l-13.552,23.475l4.86,2.805Z" style="fill:#383838;fill-rule:nonzero;"/><path d="M116.494,111.245c-0.546,0.95 -1.768,1.276 -2.711,0.732l-16.707,-9.648c-0.946,-0.544 -1.275,-1.764 -0.729,-2.712l10.679,-18.496c0.548,-0.946 1.77,-1.272 2.715,-0.726l16.707,9.646c0.944,0.542 1.271,1.764 0.725,2.71l-10.679,18.494Z" style="fill:#d9dacf;fill-rule:nonzero;"/><path d="M100.245,71.111c0,17.611 -14.275,31.887 -31.887,31.887c-17.613,0 -31.887,-14.276 -31.887,-31.887c0,-17.61 14.274,-31.887 31.887,-31.887c17.612,0 31.887,14.277 31.887,31.887Z" style="fill:#424242;fill-rule:nonzero;"/></svg>