<?xml version="1.0" encoding="UTF-8" standalone="no"?><!DOCTYPE svg PUBLIC "-//W3C//DTD SVG 1.1//EN" "http://www.w3.org/Graphics/SVG/1.1/DTD/svg11.dtd"><svg width="100%" height="100%" viewBox="0 0 126 128" version="1.1" xmlns="http://www.w3.org/2000/svg" xmlns:xlink="http://www.w3.org/1999/xlink" xml:space="preserve" xmlns:serif="http://www.serif.com/" style="fill-rule:evenodd;clip-rule:evenodd;stroke-linejoin:round;stroke-miterlimit:1.41421;"><rect x="52.188" y="0" width="20.918" height="17.979" style="fill:#73501b;"/><path d="M52.991,0.755l0,17.122c0,1.181 0.966,2.138 2.161,2.138l15.143,0c1.19,0 2.159,-0.957 2.159,-2.138l0,-17.122l-19.463,0Z" style="fill:#ae7a29;fill-rule:nonzero;"/><path d="M30.266,30.72l-10.46,18.116l-15.571,-8.989l10.46,-18.117l15.571,8.99Z" style="fill:#73501b;fill-rule:nonzero;"/><path d="M10.696,19.422l-10.385,17.988c-0.638,1.105 -0.257,2.515 0.848,3.153l17.317,9.998l0.672,0.387l1.154,-1.998l-0.672,-0.386l-15.32,-8.846l10.385,-17.988l15.992,9.232l1.153,-1.998l-17.989,-10.385c-1.103,-0.638 -2.517,-0.263 -3.155,0.843Z" style="fill:#ae7a29;fill-rule:nonzero;"/><path d="M5.29,39.528l14.206,8.203l0.622,0.359c1.022,0.591 2.334,0.231 2.933,-0.803l7.572,-13.114c0.593,-1.031 0.251,-2.349 -0.772,-2.94l-14.831,-8.561l-9.73,16.856Z" style="fill:#ae7a29;fill-rule:nonzero;"/><path d="M10.874,20.804l-9.287,16.082l4.735,2.734l9.283,-16.082l-4.731,-2.734Z" style="fill:#b78840;fill-rule:nonzero;"/><path d="M12.488,21.737l-9.285,16.081l3.119,1.802l9.283,-16.082l-3.117,-1.801Z" style="fill:#8c6221;fill-rule:nonzero;"/><path d="M19.881,74.19l10.458,18.118l-15.571,8.99l-10.458,-18.117l15.571,-8.991Z" style="fill:#73501b;fill-rule:nonzero;"/><path d="M0.311,85.49l10.382,17.988c0.641,1.105 2.052,1.481 3.155,0.844l17.321,-9.999l0.668,-0.389l-1.153,-1.997l-0.669,0.387l-15.323,8.845l-10.382,-17.988l15.989,-9.232l-1.154,-1.999l-17.986,10.387c-1.108,0.637 -1.489,2.047 -0.848,3.153Z" style="fill:#ae7a29;fill-rule:nonzero;"/><path d="M15.02,100.226l14.203,-8.203l0.625,-0.358c1.023,-0.591 1.368,-1.907 0.772,-2.944l-7.571,-13.113c-0.597,-1.028 -1.912,-1.391 -2.934,-0.801l-14.828,8.563l9.733,16.856Z" style="fill:#ae7a29;fill-rule:nonzero;"/><path d="M1.595,86.028l9.285,16.083l4.734,-2.734l-9.284,-16.082l-4.735,2.733Z" style="fill:#b78840;fill-rule:nonzero;"/><path d="M3.212,85.096l9.285,16.082l3.117,-1.801l-9.284,-16.082l-3.118,1.801Z" style="fill:#8c6221;fill-rule:nonzero;"/><path d="M52.333,104.922l20.919,0.001l0,17.979l-20.919,0l0,-17.98Z" style="fill:#73501b;fill-rule:nonzero;"/><path d="M52.333,127.519l20.77,0.002c1.277,-0.002 2.307,-1.036 2.307,-2.31l0,-20l0,-0.773l-2.307,0l0,18.466l-20.77,-0.002l0,-18.464l-2.308,0l0,20.77c0,1.277 1.031,2.313 2.308,2.311Z" style="fill:#ae7a29;fill-rule:nonzero;"/><path d="M72.448,122.148l0,-16.403l0,-0.718c0,-1.183 -0.966,-2.14 -2.161,-2.14l-15.143,0c-1.187,0 -2.159,0.959 -2.159,2.139l0,17.123l19.463,-0.001Z" style="fill:#ae7a29;fill-rule:nonzero;"/><path d="M53.442,126.675l18.57,0.001l0,-5.466l-18.57,0l0,5.465Z" style="fill:#b78840;fill-rule:nonzero;"/><rect x="53.442" y="121.21" width="18.57" height="3.6" style="fill:#8c6221;"/><path d="M95.173,92.182l10.461,-18.116l15.571,8.99l-10.461,18.116l-15.571,-8.99Z" style="fill:#73501b;fill-rule:nonzero;"/><path d="M114.743,103.481l10.385,-17.987c0.638,-1.107 0.257,-2.517 -0.845,-3.154l-17.32,-9.999l-0.669,-0.388l-1.154,1.999l0.669,0.387l15.32,8.847l-10.385,17.986l-15.989,-9.232l-1.154,1.997l17.988,10.387c1.102,0.637 2.516,0.264 3.154,-0.843Z" style="fill:#ae7a29;fill-rule:nonzero;"/><path d="M120.149,83.374l-14.206,-8.202l-0.622,-0.358c-1.021,-0.592 -2.334,-0.233 -2.933,0.802l-7.572,13.112c-0.593,1.032 -0.251,2.35 0.772,2.942l14.831,8.561l9.73,-16.857Z" style="fill:#ae7a29;fill-rule:nonzero;"/><path d="M114.568,102.098l9.285,-16.08l-4.736,-2.734l-9.285,16.081l4.736,2.733Z" style="fill:#b78840;fill-rule:nonzero;"/><path d="M112.951,101.165l9.285,-16.082l-3.119,-1.799l-9.285,16.081l3.119,1.8Z" style="fill:#8c6221;fill-rule:nonzero;"/><path d="M105.561,48.711l-10.461,-18.115l15.571,-8.99l10.461,18.115l-15.571,8.99Z" style="fill:#73501b;fill-rule:nonzero;"/><path d="M125.131,37.413l-10.385,-17.988c-0.638,-1.106 -2.052,-1.48 -3.155,-0.845l-17.318,10l-0.672,0.386l1.154,1.999l0.672,-0.386l15.32,-8.846l10.385,17.988l-15.992,9.232l1.154,1.998l17.987,-10.385c1.107,-0.637 1.488,-2.048 0.85,-3.153Z" style="fill:#ae7a29;fill-rule:nonzero;"/><path d="M110.422,22.678l-14.208,8.202l-0.62,0.358c-1.026,0.59 -1.371,1.906 -0.775,2.943l7.574,13.113c0.594,1.029 1.908,1.392 2.931,0.8l14.831,-8.561l-9.733,-16.855Z" style="fill:#ae7a29;fill-rule:nonzero;"/><path d="M123.844,36.875l-9.282,-16.084l-4.734,2.734l9.284,16.082l4.732,-2.732Z" style="fill:#b78840;fill-rule:nonzero;"/><path d="M122.23,37.806l-9.285,-16.082l-3.117,1.801l9.284,16.082l3.118,-1.801Z" style="fill:#8c6221;fill-rule:nonzero;"/><path d="M99.935,61.451c0,20.553 -16.662,37.216 -37.214,37.216c-20.553,0 -37.217,-16.663 -37.217,-37.216c0,-20.553 16.664,-37.216 37.217,-37.216c20.552,0 37.214,16.663 37.214,37.216Z" style="fill:#424242;fill-rule:nonzero;"/></svg>